<svg viewBox="0 0 1266 1266" xmlns="http://www.w3.org/2000/svg">
  <path d="M108.957 952.946C104.24 947.642 103.581 939.865 107.339 933.843L503.063 299.706C504.966 296.658 507.839 294.338 511.22 293.122L723.583 216.707C734.009 212.955 745 220.681 745 231.762V496.958C745 501.151 743.354 505.176 740.416 508.168L213.495 1044.78C207.005 1051.39 196.278 1051.13 190.123 1044.21L108.957 952.946Z" />
  <circle cx="602" cy="436" r="60.5" />
  <path d="M669.479 725.179L526.665 872.169C523.105 875.833 521.509 880.978 522.369 886.014L549.227 1043.19C550.54 1050.88 557.201 1056.5 564.998 1056.5H726.43C736.209 1056.5 743.7 1047.81 742.254 1038.13L696.779 733.963C694.821 720.866 678.707 715.681 669.479 725.179Z" />
  <path d="M901.794 514.978L779.595 1037.36C777.247 1047.39 784.866 1057 795.175 1057H932.492C939.841 1057 946.245 1051.99 948.019 1044.86L1065.11 574.147C1067.05 566.342 1062.89 558.309 1055.4 555.382L923.197 503.72C914.123 500.174 904.013 505.492 901.794 514.978Z" />
  <path d="M963.277 289.389L933.94 393.517C931.705 401.448 935.859 409.78 943.539 412.767L1077.84 465.02C1086.73 468.477 1096.65 463.444 1099.11 454.231L1156.59 238.666C1159.92 226.164 1147.81 215.081 1135.65 219.51L973.201 278.694C968.366 280.456 964.673 284.436 963.277 289.389Z" />
</svg>
